<?xml version="1.0" encoding="UTF-8" standalone="no"?>
<!-- Created with Inkscape (http://www.inkscape.org/) -->

<svg
   width="210mm"
   height="297mm"
   viewBox="0 0 210 297"
   version="1.1"
   id="svg5"
   inkscape:version="1.2.2 (732a01da63, 2022-12-09)"
   sodipodi:docname="logo VYT.svg"
   inkscape:export-filename="logo VYT.png"
   inkscape:export-xdpi="96"
   inkscape:export-ydpi="96"
   xmlns:inkscape="http://www.inkscape.org/namespaces/inkscape"
   xmlns:sodipodi="http://sodipodi.sourceforge.net/DTD/sodipodi-0.dtd"
   xmlns="http://www.w3.org/2000/svg"
   xmlns:svg="http://www.w3.org/2000/svg">
  <sodipodi:namedview
     id="namedview7"
     pagecolor="#ffffff"
     bordercolor="#000000"
     borderopacity="0.25"
     inkscape:showpageshadow="2"
     inkscape:pageopacity="0.0"
     inkscape:pagecheckerboard="0"
     inkscape:deskcolor="#d1d1d1"
     inkscape:document-units="mm"
     showgrid="false"
     inkscape:zoom="1.6819304"
     inkscape:cx="463.15828"
     inkscape:cy="457.21273"
     inkscape:window-width="1920"
     inkscape:window-height="1137"
     inkscape:window-x="-8"
     inkscape:window-y="-8"
     inkscape:window-maximized="1"
     inkscape:current-layer="layer1" />
  <defs
     id="defs2">
    <rect
       x="221.13767"
       y="94.172695"
       width="436.38954"
       height="141.25904"
       id="rect719" />
    <clipPath
       clipPathUnits="userSpaceOnUse"
       id="clipPath1134">
      <path
         id="path1136"
         style="fill:#ff0000;fill-opacity:1;fill-rule:nonzero;stroke:none;stroke-width:0.264583"
         d="m 52.977645,81.425005 v 54.967185 c 0.704665,0.62702 1.408854,1.25452 2.110981,1.88412 4.386035,4.00403 8.8509,7.9205 13.361977,11.78275 2.174817,1.86202 0.294291,4.0588 -1.880505,2.19676 -4.527825,-3.87665 -9.009663,-7.8073 -13.412102,-11.82615 -0.06003,-0.0538 -0.120296,-0.10743 -0.180351,-0.16123 v 3.44682 c 0.18737,0.41935 0.30376,0.76892 0.28112,0.96118 -0.06123,0.52 -0.156959,0.9418 -0.28112,1.28106 v 27.12341 H 133.89622 V 81.425005 Z" />
    </clipPath>
    <clipPath
       clipPathUnits="userSpaceOnUse"
       id="clipPath1144">
      <path
         id="path1146"
         style="fill:#ff0000;fill-opacity:1;fill-rule:nonzero;stroke:none;stroke-width:0.264583"
         d="m 6.0068685,123.69271 v 22.91436 H 49.810913 c -0.504727,-0.26598 -1.012301,-0.58733 -1.483629,-0.87023 -4.019892,-2.59765 -7.995537,-5.2768 -11.696444,-8.3199 -2.622097,-2.1683 -5.336415,-4.3267 -7.385598,-7.07141 -1.712804,-2.29417 0.658162,-3.87118 2.406574,-1.60403 1.917845,2.48683 4.415258,4.45739 6.821805,6.44611 3.406116,2.79921 7.05172,5.28058 10.745597,7.67964 -0.255733,-0.412 -0.514747,-0.82208 -0.767911,-1.23558 -2.65453,-4.05436 -5.531657,-7.95654 -8.423775,-11.84269 -0.49529,-0.66553 -0.651436,-1.28262 -0.582912,-1.76837 -0.466526,-0.44509 -0.931455,-0.89184 -1.393195,-1.34204 -0.960593,-0.97764 -1.921433,-1.96239 -2.835487,-2.98586 z m 33.1685175,0 c 0.312025,0.32057 0.624734,0.63986 0.937929,0.95808 4.836449,4.7086 9.951239,9.12039 14.975311,13.62552 3.085317,2.8166 6.210247,5.58922 9.36222,8.33076 h 44.114104 v -22.91436 z m 8.844423,12.16101 c 0.990338,1.41184 1.962925,2.83629 2.905765,4.28088 0.06575,0.10983 2.42952,3.72379 2.333191,4.54184 -0.109096,0.92647 -0.32757,1.54319 -0.622186,1.93063 h 7.420737 c -2.317869,-2.03871 -4.619395,-4.09613 -6.89932,-6.1774 -1.707195,-1.53087 -3.424516,-3.05131 -5.138187,-4.57595 z m 3.788399,8.3535 c -0.04933,0.0214 -0.09737,0.048 -0.144695,0.077 0.08189,0.028 0.162012,0.0516 0.239262,0.0677 0.05642,0.0118 -0.04171,-0.16769 -0.09457,-0.14469 z" />
    </clipPath>
  </defs>
  <g
     inkscape:label="Vrstva 1"
     inkscape:groupmode="layer"
     id="layer1"
     style="display:inline">
    <path
       sodipodi:type="star"
       style="fill:#000000;stroke-width:0.264583"
       id="path111"
       inkscape:flatsided="false"
       sodipodi:sides="3"
       sodipodi:cx="105.89523"
       sodipodi:cy="126.36238"
       sodipodi:r1="52.947617"
       sodipodi:r2="26.473808"
       sodipodi:arg1="1.080839"
       sodipodi:arg2="2.1280366"
       inkscape:rounded="0"
       inkscape:randomized="0"
       d="M 130.81176,173.08087 91.894666,148.83117 52.977575,124.58148 93.436972,103.00314 133.89637,81.424794 132.35406,127.25283 Z"
       inkscape:transform-center-x="12.458264"
       inkscape:transform-center-y="0.89044769"
       clip-path="url(#clipPath1134)" />
    <path
       style="fill:#ffffff;stroke-width:0.264583"
       d="m 132.81398,117.46362 h -25.36146 l 4.67662,8.10015 h 20.68484"
       id="path324" />
    <path
       sodipodi:type="star"
       style="fill:#ffffff;stroke-width:0.264583"
       id="path484"
       inkscape:flatsided="false"
       sodipodi:sides="3"
       sodipodi:cx="105.00535"
       sodipodi:cy="98.998695"
       sodipodi:r1="14.170069"
       sodipodi:r2="7.0850339"
       sodipodi:arg1="1.1844591"
       sodipodi:arg2="2.2316567"
       inkscape:rounded="0"
       inkscape:randomized="0"
       d="m 110.3446,112.12436 -9.68802,-7.53228 -9.688023,-7.532288 11.367163,-4.623931 11.36716,-4.623931 -1.67914,12.156218 z"
       inkscape:transform-center-x="2.669629"
       inkscape:transform-center-y="0.96945072" />
    <path
       sodipodi:type="star"
       style="fill:#000000;stroke-width:0.264583"
       id="path548"
       inkscape:flatsided="false"
       sodipodi:sides="3"
       sodipodi:cx="118.3535"
       sodipodi:cy="90.099937"
       sodipodi:r1="9.7911625"
       sodipodi:r2="4.8955803"
       sodipodi:arg1="-1.9428641"
       sodipodi:arg2="-0.89566653"
       inkscape:rounded="0"
       inkscape:randomized="0"
       d="m 114.794,80.97871 6.61923,5.299611 6.61924,5.29961 -7.89922,3.082619 -7.89921,3.082622 1.27998,-8.382231 z"
       inkscape:transform-center-x="-1.7797503"
       inkscape:transform-center-y="-0.73899785" />
    <ellipse
       style="fill:#ffffff;stroke-width:0.264583"
       id="path654"
       cx="57.285759"
       cy="135.1499"
       rx="51.279102"
       ry="11.457152"
       clip-path="url(#clipPath1144)" />
    <text
       xml:space="preserve"
       transform="scale(0.26458333)"
       id="text717"
       style="font-size:96px;white-space:pre;shape-inside:url(#rect719);fill:#ffffff" />
    <text
       xml:space="preserve"
       style="font-size:105.003px;fill:#000000;stroke-width:1.09379"
       x="159.76054"
       y="138.99597"
       id="text775"
       transform="matrix(0.83276249,0.03717233,-0.0398899,1.199042,0,0)"><tspan
         sodipodi:role="line"
         id="tspan773"
         style="fill:#000000;stroke-width:1.09379"
         x="159.76054"
         y="138.99597">P</tspan></text>
    <path
       style="fill:#ffffff;stroke-width:0.264583"
       d="M 85.418961,144.80323 54.664988,123.64513 8.7875244,114.57152 1.8909863,154.05976 85.53932,150.05532 Z"
       id="path1398" />
    <rect
       style="fill:none;stroke-width:0.264583"
       id="rect1704"
       width="142.67955"
       height="120.49894"
       x="46.091629"
       y="58.990997" />
  </g>
</svg>
